<svg xmlns="http://www.w3.org/2000/svg" width="920" height="200" viewBox="0 0 920 200">
  <rect width="920" height="200" rx="24" fill="#ffffff" stroke="#e2e8f0" stroke-width="3" />

  <text x="40" y="50" font-family="Inter, Arial, sans-serif" font-size="20" fill="#0f172a" font-weight="700">NUTRI-SCORE</text>
  <rect x="40" y="70" width="260" height="70" rx="12" fill="#f8fafc" stroke="#e2e8f0" stroke-width="2" />
  <circle cx="70" cy="105" r="18" fill="#16a34a" />
  <text x="64" y="112" font-family="Inter, Arial, sans-serif" font-size="16" fill="#ffffff" font-weight="700">A</text>
  <circle cx="110" cy="105" r="18" fill="#22c55e" />
  <text x="104" y="112" font-family="Inter, Arial, sans-serif" font-size="16" fill="#ffffff" font-weight="700">B</text>
  <circle cx="150" cy="105" r="18" fill="#eab308" />
  <text x="144" y="112" font-family="Inter, Arial, sans-serif" font-size="16" fill="#ffffff" font-weight="700">C</text>
  <circle cx="190" cy="105" r="18" fill="#f97316" />
  <text x="184" y="112" font-family="Inter, Arial, sans-serif" font-size="16" fill="#ffffff" font-weight="700">D</text>
  <circle cx="230" cy="105" r="18" fill="#dc2626" />
  <text x="224" y="112" font-family="Inter, Arial, sans-serif" font-size="16" fill="#ffffff" font-weight="700">E</text>
  <text x="40" y="155" font-family="Inter, Arial, sans-serif" font-size="12" fill="#64748b">NEW CALCULATION</text>

  <text x="340" y="50" font-family="Inter, Arial, sans-serif" font-size="20" fill="#0f172a" font-weight="700">NOVA</text>
  <rect x="340" y="70" width="120" height="70" rx="12" fill="#fee2e2" stroke="#fecaca" stroke-width="2" />
  <text x="388" y="115" font-family="Inter, Arial, sans-serif" font-size="28" fill="#991b1b" font-weight="700">4</text>

  <rect x="500" y="50" width="380" height="100" rx="16" fill="#fee2e2" stroke="#fecaca" stroke-width="2" />
  <text x="520" y="90" font-family="Inter, Arial, sans-serif" font-size="24" fill="#b91c1c" font-weight="700">E</text>
  <text x="560" y="90" font-family="Inter, Arial, sans-serif" font-size="24" fill="#0f172a" font-weight="700">green score</text>
  <rect x="520" y="105" width="120" height="12" rx="6" fill="#22c55e" />
  <rect x="648" y="105" width="120" height="12" rx="6" fill="#eab308" />
  <rect x="776" y="105" width="80" height="12" rx="6" fill="#ef4444" />
</svg>
